<svg width="106" height="18" viewBox="0 0 106 18" fill="none" xmlns="http://www.w3.org/2000/svg">
<path d="M5.87246 17.5555C5.48804 17.5555 5.16168 17.3247 5.10495 17.0121L3.19819 6.52081L3.08206 5.78056H2.90787V16.9184C2.90787 17.2704 2.56015 17.5561 2.13168 17.5561H0.776188C0.347716 17.5555 0 17.2698 0 16.9178V0.960685C0 0.429895 0.523243 0 1.16929 0H2.86983C3.43111 0 3.91364 0.327905 4.01842 0.780831L5.69761 8.02545L5.8431 8.95707H5.90116L6.04666 8.02545L7.72584 0.780831C7.83129 0.327905 8.31382 0 8.8751 0H10.5756C11.2217 0 11.7449 0.429895 11.7449 0.960685V16.9178C11.7449 17.2698 11.3972 17.5555 10.9687 17.5555H9.61325C9.18478 17.5555 8.83706 17.2698 8.83706 16.9178V5.78001H8.66287L8.54674 6.52026L6.63998 17.0121C6.58325 17.3247 6.25689 17.5555 5.87246 17.5555Z" fill="#0075FF"/>
<path d="M21.4251 13.8376V14.3815C21.3377 15.6476 20.8725 16.531 19.826 17.2236C19.3028 17.5816 18.576 17.7489 17.6169 17.7489C15.7275 17.7489 14.7678 16.8891 14.3026 16.0293C14.041 15.5275 13.8668 14.9545 13.8374 14.3097V7.74117C13.9248 6.47506 14.4187 5.54398 15.4652 4.82731C15.9597 4.46924 16.6859 4.302 17.6456 4.302C19.535 4.302 20.4947 5.16179 20.9599 5.99801C21.2215 6.49973 21.3957 7.04917 21.4251 7.66989V10.507C21.4251 11.0378 20.9018 11.4677 20.2558 11.4677H16.5704V14.3102C16.5998 14.812 16.774 15.17 17.0356 15.4327C17.1811 15.5522 17.3846 15.6235 17.6463 15.6235C18.1989 15.6235 18.4605 15.3367 18.5766 14.9787C18.6641 14.7873 18.6927 14.5723 18.6927 14.3097V13.8376C18.6927 13.3068 19.216 12.8769 19.862 12.8769H20.2558C20.9012 12.8763 21.4251 13.3068 21.4251 13.8376ZM16.5697 9.58029H18.6921V7.74117C18.6921 7.23944 18.576 6.88138 18.285 6.5946C18.1395 6.47506 17.9072 6.40378 17.6456 6.40378C17.093 6.40378 16.8607 6.71413 16.7152 7.07275C16.6278 7.26412 16.5991 7.47906 16.5697 7.74172V9.58029Z" fill="#0075FF"/>
<path d="M23.4312 16.5956V0.961417C23.4312 0.430628 23.9544 0.000732422 24.6004 0.000732422H25.9019C28.8091 0.000732422 30.3788 0.478333 31.2217 1.81572C32.036 3.15312 32.1521 5.35085 32.1521 8.79001C32.1521 12.2292 32.036 14.4028 31.2217 15.7407C30.3788 17.0781 28.8091 17.5557 25.9019 17.5557H24.6004C23.9544 17.5563 23.4312 17.1264 23.4312 16.5956ZM26.5706 14.9769C27.6465 14.9769 28.2565 14.8815 28.5768 14.0217C28.7223 13.6159 28.8384 12.9947 28.8678 12.1584C28.8972 11.3222 28.8972 10.1998 28.8972 8.76698C28.8972 7.33363 28.8972 6.21119 28.8678 5.37552C28.8384 4.56344 28.7223 3.94272 28.5768 3.51228C28.2571 2.67606 27.6465 2.58065 26.5706 2.58065V14.9769Z" fill="#0075FF"/>
<path d="M35.4129 0.000732422H36.2138C36.8599 0.000732422 37.3831 0.430628 37.3831 0.961418V16.5956C37.3831 17.1264 36.8599 17.5563 36.2138 17.5563H35.4129C34.7669 17.5563 34.2437 17.1264 34.2437 16.5956V0.961418C34.2437 0.430628 34.7676 0.000732422 35.4129 0.000732422Z" fill="#0075FF"/>
<path d="M39.0414 16.4519L41.9152 0.817753C42.0013 0.348377 42.4932 0.000732422 43.0712 0.000732422H44.8965C45.4752 0.000732422 45.9664 0.348377 46.0531 0.818301L48.927 16.4525C49.0338 17.0337 48.4858 17.5568 47.7704 17.5568H47.101C46.515 17.5568 46.0191 17.2004 45.9417 16.7228L45.4959 13.974H42.4725L42.0267 16.7228C41.9493 17.2004 41.4534 17.5568 40.8674 17.5568H40.198C39.4826 17.5563 38.9346 17.0331 39.0414 16.4519ZM44.1584 5.70946L44.071 5.25544H43.8968L43.8093 5.70946L42.9083 11.2509H45.0594L44.1584 5.70946Z" fill="#0075FF"/>
<path d="M105.192 11.0993C104.509 10.6436 103.602 10.7508 103.041 11.3547C101.364 13.1592 98.8748 15.4299 94.2561 15.6727C88.386 15.982 85.6787 12.3621 85.7905 11.4712C85.9024 10.5804 89.6663 8.46057 92.5604 8.5074C95.4545 8.55423 93.8616 13.3956 90.3835 11.6645C90.3835 11.6645 91.013 14.4841 94.4402 14.2907C97.0137 14.1459 98.6992 12.6534 99.4031 10.5641C99.812 9.35032 99.1066 8.04129 97.8889 7.70696C96.358 7.28659 94.695 7.00997 92.9447 6.99146C84.9143 6.90488 81.8848 11.4435 81.8848 11.4435C81.8848 11.4435 84.8115 16.5892 93.701 16.8358C99.1836 16.9878 103.03 15.3346 105.172 14.0446C106.245 13.3988 106.282 11.8301 105.241 11.1314C105.225 11.1211 105.209 11.1102 105.192 11.0993Z" fill="url(#paint0_linear_314_8283)"/>
<path d="M75.3496 11.0993C74.6666 10.6436 73.7594 10.7508 73.1979 11.3547C71.521 13.1592 69.032 15.4299 64.4133 15.6727C58.5432 15.982 55.8359 12.3621 55.9477 11.4712C56.0596 10.5804 59.8235 8.46057 62.7176 8.5074C65.6118 8.55423 64.0188 13.3956 60.5408 11.6645C60.5408 11.6645 61.1702 14.4841 64.5974 14.2907C67.1709 14.1459 68.8565 12.6534 69.5603 10.5641C69.9693 9.35032 69.2638 8.04129 68.0461 7.70696C66.5153 7.28659 64.8522 7.00997 63.1019 6.99146C55.0715 6.90488 52.042 11.4435 52.042 11.4435C52.042 11.4435 54.9688 16.5892 63.8583 16.8358C69.3409 16.9878 73.1872 15.3346 75.3293 14.0446C76.4025 13.3988 76.4389 11.8301 75.3978 11.1314C75.3823 11.1211 75.3657 11.1102 75.3496 11.0993Z" fill="url(#paint1_linear_314_8283)"/>
<path d="M103.223 0.0208016C88.5817 2.39398 81.4891 6.85586 78.9676 8.81819C76.4461 6.85586 69.3534 2.39398 54.7124 0.0208016C54.3823 -0.032811 54.0436 0.0229898 53.7461 0.179998C52.3695 0.907598 52.7526 3.01818 54.2929 3.19379C60.8602 3.94109 71.8193 5.74203 77.4358 9.77337V16.1407C77.4358 17.0056 78.1217 17.7069 78.9676 17.7069C79.8134 17.7069 80.4993 17.0056 80.4993 16.1407V9.77337C86.1158 5.74203 97.0755 3.94054 103.642 3.19379C105.183 3.01873 105.566 0.908145 104.189 0.179998C103.892 0.0229898 103.553 -0.032811 103.223 0.0208016Z" fill="url(#paint2_linear_314_8283)"/>
<defs>
<linearGradient id="paint0_linear_314_8283" x1="79.9567" y1="15.2681" x2="106.951" y2="14.6764" gradientUnits="userSpaceOnUse">
<stop stop-color="#48D1FE"/>
<stop offset="1" stop-color="#FDA4FF"/>
</linearGradient>
<linearGradient id="paint1_linear_314_8283" x1="51.7352" y1="12.0876" x2="77.502" y2="12.0876" gradientUnits="userSpaceOnUse">
<stop stop-color="#7423FB"/>
<stop offset="0.919153" stop-color="#09DEFE"/>
</linearGradient>
<linearGradient id="paint2_linear_314_8283" x1="53.9492" y1="12.4628" x2="104.85" y2="10.9917" gradientUnits="userSpaceOnUse">
<stop stop-color="#6100FF" stop-opacity="0.85"/>
<stop offset="0.382867" stop-color="#08E0FE"/>
<stop offset="0.993948" stop-color="#FDA4FF"/>
</linearGradient>
</defs>
</svg>
