<svg width="134" height="134" viewBox="0 0 134 134" fill="none" xmlns="http://www.w3.org/2000/svg">
<circle cx="67" cy="67" r="67" fill="#0E004F"/>
<path d="M121.792 72.1364C120.368 71.1864 118.477 71.41 117.306 72.6688C113.811 76.4303 108.623 81.1635 98.9948 81.6697C86.7585 82.3144 81.1151 74.7686 81.3483 72.9117C81.5815 71.0547 89.4274 66.636 95.4602 66.7336C101.493 66.8312 98.1725 76.9229 90.9225 73.3146C90.9225 73.3146 92.2346 79.1919 99.3786 78.789C104.743 78.487 108.257 75.3759 109.724 71.0207C110.576 68.4906 109.106 65.762 106.567 65.0651C103.376 64.1888 99.9097 63.6122 96.2613 63.5736C79.5219 63.3931 73.2068 72.8538 73.2068 72.8538C73.2068 72.8538 79.3076 83.58 97.8378 84.0942C109.266 84.4109 117.284 80.9649 121.749 78.2759C123.986 76.9298 124.062 73.6597 121.892 72.2034C121.86 72.1818 121.826 72.1591 121.792 72.1364Z" fill="url(#paint0_linear_314_8129)"/>
<path d="M59.5848 72.1364C58.1611 71.1864 56.2699 71.41 55.0995 72.6688C51.6039 76.4303 46.4157 81.1635 36.788 81.6697C24.5517 82.3144 18.9083 74.7686 19.1415 72.9117C19.3747 71.0547 27.2206 66.636 33.2534 66.7336C39.2862 66.8312 35.9657 76.9229 28.7157 73.3146C28.7157 73.3146 30.0278 79.1919 37.1719 78.789C42.5363 78.487 46.0498 75.3759 47.517 71.0207C48.3694 68.4906 46.8989 65.762 44.3605 65.0651C41.1695 64.1888 37.7029 63.6122 34.0545 63.5736C17.3151 63.3931 11 72.8538 11 72.8538C11 72.8538 17.1009 83.58 35.631 84.0942C47.0595 84.4109 55.0772 80.9649 59.5424 78.2759C61.7794 76.9298 61.8553 73.6597 59.6852 72.2034C59.6528 72.1818 59.6183 72.1591 59.5848 72.1364Z" fill="url(#paint1_linear_314_8129)"/>
<path d="M117.686 49.0413C87.1669 53.9882 72.3824 63.289 67.1263 67.3795C61.8702 63.289 47.0856 53.9882 16.5663 49.0413C15.8782 48.9296 15.1722 49.0459 14.5522 49.3732C11.6827 50.8899 12.4812 55.2894 15.6919 55.6554C29.3814 57.2132 52.2257 60.9672 63.9334 69.3706V82.6432C63.9334 84.4461 65.3631 85.9081 67.1263 85.9081C68.8895 85.9081 70.3192 84.4461 70.3192 82.6432V69.3706C82.0268 60.9672 104.872 57.212 118.561 55.6554C121.771 55.2905 122.57 50.891 119.7 49.3732C119.081 49.0459 118.375 48.9296 117.686 49.0413Z" fill="url(#paint2_linear_314_8129)"/>
<defs>
<linearGradient id="paint0_linear_314_8129" x1="69.1877" y1="80.8262" x2="125.458" y2="79.5928" gradientUnits="userSpaceOnUse">
<stop stop-color="#48D1FE"/>
<stop offset="1" stop-color="#FDA4FF"/>
</linearGradient>
<linearGradient id="paint1_linear_314_8129" x1="10.3606" y1="74.1965" x2="64.0713" y2="74.1965" gradientUnits="userSpaceOnUse">
<stop stop-color="#7423FB"/>
<stop offset="0.919153" stop-color="#09DEFE"/>
</linearGradient>
<linearGradient id="paint2_linear_314_8129" x1="14.9754" y1="74.9767" x2="121.077" y2="71.9102" gradientUnits="userSpaceOnUse">
<stop stop-color="#6100FF" stop-opacity="0.85"/>
<stop offset="0.382867" stop-color="#08E0FE"/>
<stop offset="0.993948" stop-color="#FDA4FF"/>
</linearGradient>
</defs>
</svg>
