<svg width="144" height="22" viewBox="0 0 144 22" fill="none" xmlns="http://www.w3.org/2000/svg">
<path d="M19.6264 21.8872H10.6653C4.76457 21.8872 0 16.9795 0 10.9436C0 7.91624 1.19114 5.18974 3.13362 3.19658C5.05778 1.22222 7.71494 0 10.6653 0C13.6157 0 16.2912 1.22222 18.197 3.19658C19.1682 4.19316 19.9379 5.37778 20.4877 6.69402C21.0374 7.99145 21.3306 9.43932 21.3306 10.9624C21.3306 13.3692 20.5793 15.588 19.2782 17.3932C19.0033 17.8068 18.6735 18.1829 18.3253 18.5402L15.2466 15.3436C16.3095 14.1966 16.9509 12.6547 16.9509 10.9436C16.9509 9.15727 16.2545 7.55897 15.1184 6.39316C13.9822 5.22735 12.3879 4.51282 10.6653 4.51282C8.94274 4.51282 7.36676 5.22735 6.23059 6.39316C5.09443 7.55897 4.39807 9.15727 4.39807 10.9436C4.39807 14.4974 7.20183 17.3744 10.6653 17.3744V12.7111L19.6264 21.8872Z" fill="url(#paint0_linear_314_8306)"/>
<path d="M33.6085 6.44947C32.7289 6.44947 32.0142 7.1828 32.0142 8.08536V15.6631C32.0142 16.4529 31.7393 17.1486 31.1895 17.7127C30.6398 18.2768 29.9617 18.5589 29.1921 18.5589C28.4407 18.5589 27.781 18.2956 27.2496 17.7691C26.6998 17.2426 26.425 16.5845 26.4066 15.8324V8.08536C26.4066 7.69049 26.2784 7.33323 26.0218 7.03237C25.9668 6.95716 25.8935 6.90075 25.8202 6.82554C25.5087 6.56229 25.1605 6.43066 24.794 6.43066C23.9144 6.43066 23.1997 7.164 23.1997 8.06656V15.8324C23.218 17.4683 23.8228 18.8973 24.9956 20.0631C26.1684 21.229 27.5794 21.8119 29.1921 21.8119C30.2916 21.8119 31.2995 21.5298 32.2157 20.9845C32.3257 21.2102 32.4906 21.3982 32.7105 21.5486C32.9854 21.7366 33.3153 21.8307 33.6634 21.8307C34.5064 21.8307 35.1844 21.1161 35.1844 20.27V8.08536C35.2028 7.1828 34.4881 6.44947 33.6085 6.44947Z" fill="url(#paint1_linear_314_8306)"/>
<path d="M45.3916 8.02893C45.0434 7.12636 44.2004 6.54346 43.2659 6.54346C42.3313 6.54346 41.4883 7.12636 41.1401 8.02893L36.5222 19.9315C36.3572 20.3828 36.3939 20.8905 36.6688 21.3041C36.9436 21.7178 37.3835 21.9435 37.8599 21.9435C38.1898 21.9435 38.5013 21.8494 38.7578 21.6614C39.0327 21.4734 39.2343 21.2289 39.3626 20.9093L40.1322 18.8785H46.4361L47.2058 20.9093C47.3341 21.2289 47.5356 21.4734 47.7922 21.6614C48.0671 21.8494 48.3603 21.9435 48.6901 21.9435C49.1666 21.9435 49.6064 21.699 49.8813 21.3041C50.1562 20.9093 50.1928 20.4016 50.0279 19.9315L45.3916 8.02893ZM41.3967 15.6255L43.2475 10.8118L45.1167 15.6255H41.3967Z" fill="url(#paint2_linear_314_8306)"/>
<path d="M53.2715 6.54346C52.3919 6.54346 51.6772 7.27679 51.6772 8.17935V20.2888C51.6772 21.1913 52.3919 21.9247 53.2715 21.9247C54.1512 21.9247 54.8658 21.1913 54.8658 20.2888V8.17935C54.8658 7.72807 54.7009 7.3332 54.3894 7.01354C54.0962 6.69388 53.7114 6.54346 53.2715 6.54346Z" fill="url(#paint3_linear_314_8306)"/>
<path d="M66.4475 6.52466C65.6228 6.52466 64.9631 7.20158 64.9631 8.04773V20.3264C64.9631 21.1725 65.6412 21.8494 66.4475 21.8494C67.2721 21.8494 67.9318 21.1725 67.9318 20.3264V8.04773C67.9318 7.61526 67.7669 7.23919 67.492 6.95714C67.2355 6.69389 66.869 6.52466 66.4475 6.52466Z" fill="url(#paint4_linear_314_8306)"/>
<path d="M83.4532 6.54356C82.6103 6.52475 81.9322 7.27689 81.9322 8.12305V17.0359L73.3743 6.99484C73.1361 6.71279 72.7879 6.54356 72.4031 6.54356H71.5051C71.0837 6.54356 70.7171 6.71279 70.4056 7.05125V7.07005C70.259 7.23928 70.1491 7.40852 70.0941 7.59655V7.61535C70.0208 7.74698 69.9841 7.91621 69.9841 8.08544V20.3453C69.9841 21.1726 70.6255 21.8871 71.4502 21.8871C71.89 21.8871 72.2381 21.7367 72.5497 21.4359C72.8429 21.135 72.9895 20.7777 72.9895 20.3641V11.4324L81.5291 21.4359C81.7673 21.7179 82.1155 21.8871 82.5003 21.8871H83.3982C83.838 21.8871 84.2046 21.7367 84.4978 21.4171L84.5161 21.3983V21.3795C84.6444 21.229 84.7543 21.0598 84.8276 20.853C84.8826 20.7025 84.9009 20.5333 84.9009 20.3829V8.06664C84.9192 7.23928 84.2595 6.56236 83.4532 6.54356Z" fill="url(#paint5_linear_314_8306)"/>
<path d="M98.883 6.43066C98.5898 6.43066 98.3149 6.52468 98.0584 6.69391C97.8018 6.88195 97.6185 7.10759 97.5086 7.40844L96.684 9.51442L95.4928 12.5982L93.4221 17.9384L91.333 12.5982L90.1602 9.51442L89.3355 7.40844C89.2622 7.22041 89.1706 7.05118 89.024 6.90075C88.8774 6.75032 88.7125 6.6375 88.5292 6.56229C88.346 6.48707 88.1627 6.43066 87.9428 6.43066C87.0082 6.43066 86.3485 7.40844 86.6967 8.31101L91.388 20.364C91.7178 21.229 92.5241 21.7931 93.4404 21.7931C94.3383 21.7931 95.1446 21.229 95.4928 20.364L100.184 8.31101C100.459 7.40844 99.8176 6.43066 98.883 6.43066Z" fill="url(#paint6_linear_314_8306)"/>
<path d="M112.627 18.8597H105.15V15.7759H109.64C110.465 15.7759 111.124 15.099 111.124 14.2528C111.124 13.4067 110.465 12.7298 109.64 12.7298H105.15V9.66481H112.609C113.433 9.66481 114.093 8.98788 114.093 8.14173C114.093 7.29558 113.433 6.61865 112.609 6.61865H103.758C102.878 6.61865 102.163 7.35199 102.163 8.25455V20.364C102.163 20.7776 102.31 21.1349 102.603 21.4357C102.896 21.7366 103.245 21.887 103.648 21.887H112.627C113.433 21.887 114.093 21.2101 114.093 20.3828C114.111 19.5366 113.452 18.8597 112.627 18.8597Z" fill="url(#paint7_linear_314_8306)"/>
<path d="M120.25 9.51442H126.188C126.463 9.51442 126.701 9.43921 126.939 9.30758C127.177 9.17596 127.361 8.98792 127.489 8.74348C127.617 8.49904 127.69 8.25459 127.69 7.97254C127.69 7.12639 127.031 6.44946 126.206 6.44946H120.25C119.023 6.44946 117.96 6.90075 117.08 7.78451C116.201 8.68707 115.779 9.75886 115.779 11.0375C115.779 12.2973 116.219 13.3879 117.08 14.3093C117.941 15.2119 119.004 15.6631 120.25 15.6631H123.237C123.531 15.6631 123.824 15.7384 124.062 15.9076C124.227 16.0204 124.374 16.1708 124.484 16.3401C124.63 16.6033 124.722 16.8666 124.722 17.1862C124.722 17.5999 124.575 17.9572 124.282 18.2768C123.989 18.5777 123.641 18.7281 123.237 18.7281H117.282C116.879 18.7281 116.53 18.8785 116.237 19.1794C115.944 19.4802 115.797 19.8375 115.797 20.2512C115.797 21.0973 116.475 21.7931 117.3 21.7931H123.219C124.465 21.7931 125.528 21.3418 126.408 20.4392C127.287 19.5366 127.709 18.446 127.709 17.1674C127.709 15.9076 127.269 14.817 126.408 13.9144C125.528 13.0119 124.484 12.5794 123.219 12.5794H120.25C119.829 12.5794 119.481 12.429 119.188 12.1281C118.894 11.8272 118.748 11.47 118.748 11.0563C118.748 10.6426 118.894 10.2478 119.188 9.9657C119.481 9.66485 119.829 9.51442 120.25 9.51442Z" fill="url(#paint8_linear_314_8306)"/>
<path d="M142.497 6.43066H130.586C129.761 6.43066 129.083 7.12639 129.083 7.97254C129.083 8.38622 129.23 8.74348 129.523 9.04434C129.816 9.34519 130.164 9.49562 130.586 9.49562H135.039V20.2512C135.039 21.0973 135.699 21.7743 136.523 21.7743C136.798 21.7743 137.036 21.699 137.275 21.5674C137.513 21.4358 137.696 21.2478 137.824 21.0221C137.953 20.7965 138.026 20.5332 138.026 20.27V9.53323H142.497C142.919 9.53323 143.267 9.3828 143.56 9.08195C143.853 8.78109 144 8.42383 144 8.01015C144 7.12639 143.322 6.43066 142.497 6.43066Z" fill="url(#paint9_linear_314_8306)"/>
<defs>
<linearGradient id="paint0_linear_314_8306" x1="5.28466" y1="22.0743" x2="20.6132" y2="-1.26754" gradientUnits="userSpaceOnUse">
<stop stop-color="#74EAE8"/>
<stop offset="1" stop-color="#0394E8"/>
</linearGradient>
<linearGradient id="paint1_linear_314_8306" x1="29.1922" y1="6.76913" x2="29.1922" y2="21.8166" gradientUnits="userSpaceOnUse">
<stop stop-color="#085CB0"/>
<stop offset="1" stop-color="#0A3781"/>
</linearGradient>
<linearGradient id="paint2_linear_314_8306" x1="43.275" y1="6.7691" x2="43.275" y2="21.8165" gradientUnits="userSpaceOnUse">
<stop stop-color="#085CB0"/>
<stop offset="1" stop-color="#0A3781"/>
</linearGradient>
<linearGradient id="paint3_linear_314_8306" x1="53.2715" y1="6.7691" x2="53.2715" y2="21.8165" gradientUnits="userSpaceOnUse">
<stop stop-color="#085CB0"/>
<stop offset="1" stop-color="#0A3781"/>
</linearGradient>
<linearGradient id="paint4_linear_314_8306" x1="66.4523" y1="6.7691" x2="66.4523" y2="21.8165" gradientUnits="userSpaceOnUse">
<stop stop-color="#085CB0"/>
<stop offset="1" stop-color="#0A3781"/>
</linearGradient>
<linearGradient id="paint5_linear_314_8306" x1="77.4374" y1="6.7692" x2="77.4374" y2="21.8166" gradientUnits="userSpaceOnUse">
<stop stop-color="#085CB0"/>
<stop offset="1" stop-color="#0A3781"/>
</linearGradient>
<linearGradient id="paint6_linear_314_8306" x1="93.4114" y1="6.76913" x2="93.4114" y2="21.8166" gradientUnits="userSpaceOnUse">
<stop stop-color="#085CB0"/>
<stop offset="1" stop-color="#0A3781"/>
</linearGradient>
<linearGradient id="paint7_linear_314_8306" x1="108.14" y1="6.76908" x2="108.14" y2="21.8165" gradientUnits="userSpaceOnUse">
<stop stop-color="#085CB0"/>
<stop offset="1" stop-color="#0A3781"/>
</linearGradient>
<linearGradient id="paint8_linear_314_8306" x1="121.736" y1="6.76912" x2="121.736" y2="21.8166" gradientUnits="userSpaceOnUse">
<stop stop-color="#085CB0"/>
<stop offset="1" stop-color="#0A3781"/>
</linearGradient>
<linearGradient id="paint9_linear_314_8306" x1="136.536" y1="6.76913" x2="136.536" y2="21.8166" gradientUnits="userSpaceOnUse">
<stop stop-color="#085CB0"/>
<stop offset="1" stop-color="#0A3781"/>
</linearGradient>
</defs>
</svg>
