<svg width="239" height="41" viewBox="0 0 239 41" fill="none" xmlns="http://www.w3.org/2000/svg">
<path d="M13.2407 40.1669C12.3739 40.1669 11.6381 39.6464 11.5102 38.9417L7.21098 15.2868L6.94915 13.6178H6.5564V38.7303C6.5564 39.524 5.7724 40.1681 4.80632 40.1681H1.75008C0.783999 40.1669 0 39.5228 0 38.729V2.75035C0 1.55358 1.17976 0.58429 2.6364 0.58429H6.47062C7.73615 0.58429 8.82412 1.32362 9.06038 2.34483L12.8464 18.6793L13.1745 20.7799H13.3054L13.6334 18.6793L17.4195 2.34483C17.6573 1.32362 18.7452 0.58429 20.0108 0.58429H23.845C25.3016 0.58429 26.4814 1.55358 26.4814 2.75035V38.729C26.4814 39.5228 25.6974 40.1669 24.7313 40.1669H21.6751C20.709 40.1669 19.925 39.5228 19.925 38.729V13.6165H19.5322L19.2704 15.2856L14.9712 38.9417C14.8433 39.6464 14.1075 40.1669 13.2407 40.1669Z" fill="#0075FF"/>
<path d="M48.3077 31.7842V33.0106C48.1106 35.8653 47.0618 37.8571 44.7022 39.4186C43.5225 40.2259 41.8838 40.603 39.7214 40.603C35.4613 40.603 33.2974 38.6644 32.2486 36.7258C31.6587 35.5946 31.2659 34.3026 31.1997 32.8487V18.0386C31.3968 15.1839 32.5104 13.0845 34.8699 11.4687C35.985 10.6613 37.6222 10.2842 39.7861 10.2842C44.0462 10.2842 46.21 12.2228 47.2589 14.1082C47.8488 15.2395 48.2415 16.4783 48.3077 17.8778V24.2747C48.3077 25.4714 47.128 26.4407 45.6713 26.4407H37.3618V32.8499C37.4281 33.9812 37.8208 34.7885 38.4107 35.3807C38.7387 35.6502 39.1977 35.8109 39.7876 35.8109C41.0336 35.8109 41.6234 35.1643 41.8853 34.357C42.0824 33.9255 42.1471 33.4409 42.1471 32.8487V31.7842C42.1471 30.5874 43.3269 29.6181 44.7835 29.6181H45.6713C47.1265 29.6169 48.3077 30.5874 48.3077 31.7842ZM37.3603 22.1852H42.1456V18.0386C42.1456 16.9073 41.8838 16.1 41.2277 15.4534C40.8996 15.1839 40.376 15.0231 39.7861 15.0231C38.5401 15.0231 38.0164 15.7229 37.6884 16.5315C37.4913 16.9629 37.4266 17.4476 37.3603 18.0398V22.1852Z" fill="#0075FF"/>
<path d="M52.8308 38.0024V2.75194C52.8308 1.55517 54.0106 0.585876 55.4672 0.585876H58.4016C64.9565 0.585876 68.4957 1.66273 70.3963 4.67815C72.2321 7.69358 72.494 12.6488 72.494 20.4031C72.494 28.1574 72.2321 33.0583 70.3963 36.075C68.4957 39.0904 64.9565 40.1672 58.4016 40.1672H55.4672C54.0106 40.1685 52.8308 39.1992 52.8308 38.0024ZM59.9094 34.3527C62.3351 34.3527 63.7105 34.1376 64.4328 32.199C64.7608 31.2841 65.0227 29.8834 65.0889 27.998C65.1551 26.1125 65.1551 23.5818 65.1551 20.3512C65.1551 17.1194 65.1551 14.5886 65.0889 12.7045C65.0227 10.8734 64.7608 9.47391 64.4328 8.50339C63.712 6.61797 62.3351 6.40285 59.9094 6.40285V34.3527Z" fill="#0075FF"/>
<path d="M79.8461 0.585876H81.6519C83.1085 0.585876 84.2883 1.55517 84.2883 2.75194V38.0024C84.2883 39.1992 83.1085 40.1685 81.6519 40.1685H79.8461C78.3895 40.1685 77.2097 39.1992 77.2097 38.0024V2.75194C77.2097 1.55517 78.391 0.585876 79.8461 0.585876Z" fill="#0075FF"/>
<path d="M88.0271 37.6785L94.5068 2.42802C94.7009 1.36971 95.8099 0.585876 97.1131 0.585876H101.229C102.533 0.585876 103.641 1.36971 103.837 2.42926L110.316 37.6797C110.557 38.9902 109.322 40.1697 107.708 40.1697H106.199C104.878 40.1697 103.76 39.3661 103.585 38.2892L102.58 32.0915H95.7633L94.7581 38.2892C94.5835 39.3661 93.4655 40.1697 92.1443 40.1697H90.635C89.0218 40.1685 87.7864 38.989 88.0271 37.6785ZM99.5644 13.4574L99.3673 12.4337H98.9745L98.7774 13.4574L96.7459 25.9518H101.596L99.5644 13.4574Z" fill="#0075FF"/>
<path d="M237.18 25.6102C235.64 24.5826 233.594 24.8245 232.328 26.186C228.547 30.2547 222.935 35.3744 212.521 35.922C199.286 36.6193 193.182 28.4573 193.434 26.4488C193.686 24.4402 202.173 19.6606 208.698 19.7662C215.224 19.8718 211.632 30.7876 203.79 26.8846C203.79 26.8846 205.209 33.2418 212.937 32.806C218.739 32.4794 222.539 29.1142 224.126 24.4033C225.048 21.6667 223.458 18.7153 220.712 17.9614C217.261 17.0136 213.511 16.3899 209.565 16.3482C191.458 16.153 184.628 26.3861 184.628 26.3861C184.628 26.3861 191.227 37.9882 211.27 38.5444C223.632 38.8869 232.304 35.1595 237.134 32.251C239.553 30.7949 239.636 27.2578 237.288 25.6826C237.253 25.6593 237.217 25.6348 237.18 25.6102Z" fill="url(#paint0_linear_316_90)"/>
<path d="M169.892 25.6102C168.352 24.5826 166.307 24.8245 165.041 26.186C161.26 30.2547 155.648 35.3744 145.234 35.922C131.999 36.6193 125.894 28.4573 126.147 26.4488C126.399 24.4402 134.885 19.6606 141.411 19.7662C147.936 19.8718 144.345 30.7876 136.503 26.8846C136.503 26.8846 137.922 33.2418 145.649 32.806C151.452 32.4794 155.252 29.1142 156.839 24.4033C157.761 21.6667 156.17 18.7153 153.425 17.9614C149.973 17.0136 146.224 16.3899 142.277 16.3482C124.171 16.153 117.34 26.3861 117.34 26.3861C117.34 26.3861 123.939 37.9882 143.983 38.5444C156.344 38.8869 165.017 35.1595 169.846 32.251C172.266 30.7949 172.348 27.2578 170.001 25.6826C169.966 25.6593 169.928 25.6348 169.892 25.6102Z" fill="url(#paint1_linear_316_90)"/>
<path d="M232.738 0.631125C199.727 5.98195 183.735 16.0422 178.05 20.4667C172.365 16.0422 156.373 5.98195 123.361 0.631125C122.617 0.510245 121.854 0.636059 121.183 0.990068C118.079 2.63059 118.943 7.38935 122.416 7.7853C137.223 9.47023 161.933 13.5308 174.596 22.6203V36.9768C174.596 38.9269 176.143 40.5082 178.05 40.5082C179.957 40.5082 181.503 38.9269 181.503 36.9768V22.6203C194.167 13.5308 218.878 9.469 233.684 7.7853C237.157 7.39059 238.021 2.63183 234.917 0.990068C234.247 0.636059 233.484 0.510245 232.738 0.631125Z" fill="url(#paint2_linear_316_90)"/>
<defs>
<linearGradient id="paint0_linear_316_90" x1="180.28" y1="35.0095" x2="241.146" y2="33.6754" gradientUnits="userSpaceOnUse">
<stop stop-color="#48D1FE"/>
<stop offset="1" stop-color="#FDA4FF"/>
</linearGradient>
<linearGradient id="paint1_linear_316_90" x1="116.649" y1="27.8385" x2="174.745" y2="27.8385" gradientUnits="userSpaceOnUse">
<stop stop-color="#7423FB"/>
<stop offset="0.919153" stop-color="#09DEFE"/>
</linearGradient>
<linearGradient id="paint2_linear_316_90" x1="121.641" y1="28.6843" x2="236.406" y2="25.3673" gradientUnits="userSpaceOnUse">
<stop stop-color="#6100FF" stop-opacity="0.85"/>
<stop offset="0.382867" stop-color="#08E0FE"/>
<stop offset="0.993948" stop-color="#FDA4FF"/>
</linearGradient>
</defs>
</svg>
