<svg width="285" height="42" viewBox="0 0 285 42" fill="none" xmlns="http://www.w3.org/2000/svg">
<g clip-path="url(#clip0_316_111)">
<path d="M38.8439 41.7846H21.1084C9.42988 41.7846 0 32.4154 0 20.8923C0 15.1128 2.35747 9.90769 6.20196 6.10256C10.0102 2.33333 15.2692 0 21.1084 0C26.9477 0 32.2429 2.33333 36.0149 6.10256C37.9371 8.00513 39.4604 10.2667 40.5485 12.7795C41.6366 15.2564 42.2169 18.0205 42.2169 20.9282C42.2169 25.5231 40.7298 29.759 38.1547 33.2051C37.6107 33.9949 36.9579 34.7128 36.2688 35.3949L30.1756 29.2923C32.2792 27.1026 33.5486 24.159 33.5486 20.8923C33.5486 17.4821 32.1704 14.4308 29.9217 12.2051C27.6731 9.97949 24.5177 8.61538 21.1084 8.61538C17.6992 8.61538 14.58 9.97949 12.3314 12.2051C10.0827 14.4308 8.7045 17.4821 8.7045 20.8923C8.7045 27.6769 14.2536 33.1692 21.1084 33.1692V24.2667L38.8439 41.7846Z" fill="url(#paint0_linear_316_111)"/>
<path d="M66.5169 12.3128C64.776 12.3128 63.3615 13.7128 63.3615 15.4359V29.9026C63.3615 31.4103 62.8175 32.7385 61.7294 33.8154C60.6414 34.8923 59.2994 35.4308 57.7762 35.4308C56.2891 35.4308 54.9835 34.9282 53.9317 33.9231C52.8436 32.9179 52.2996 31.6615 52.2633 30.2256V15.4359C52.2633 14.682 52.0094 14 51.5017 13.4256C51.3928 13.282 51.2478 13.1744 51.1027 13.0308C50.4861 12.5282 49.797 12.2769 49.0716 12.2769C47.3307 12.2769 45.9163 13.6769 45.9163 15.4V30.2256C45.9525 33.3487 47.1494 36.0769 49.4706 38.3026C51.7918 40.5282 54.5845 41.641 57.7762 41.641C59.9523 41.641 61.9471 41.1026 63.7605 40.0615C63.9781 40.4923 64.3045 40.8513 64.7398 41.1385C65.2838 41.4974 65.9366 41.6769 66.6257 41.6769C68.2941 41.6769 69.636 40.3128 69.636 38.6974V15.4359C69.6723 13.7128 68.2578 12.3128 66.5169 12.3128Z" fill="url(#paint1_linear_316_111)"/>
<path d="M89.8378 15.3281C89.1487 13.6051 87.4803 12.4922 85.6306 12.4922C83.7809 12.4922 82.1126 13.6051 81.4235 15.3281L72.2837 38.0512C71.9573 38.9128 72.0298 39.882 72.5739 40.6717C73.1179 41.4615 73.9884 41.8922 74.9313 41.8922C75.5842 41.8922 76.2008 41.7128 76.7085 41.3538C77.2525 40.9948 77.6515 40.5281 77.9054 39.9179L79.4287 36.041H91.9051L93.4284 39.9179C93.6823 40.5281 94.0812 40.9948 94.589 41.3538C95.133 41.7128 95.7134 41.8922 96.3662 41.8922C97.3092 41.8922 98.1796 41.4256 98.7237 40.6717C99.2677 39.9179 99.3402 38.9487 99.0138 38.0512L89.8378 15.3281ZM81.9312 29.8307L85.5944 20.641L89.2938 29.8307H81.9312Z" fill="url(#paint2_linear_316_111)"/>
<path d="M105.433 12.4922C103.693 12.4922 102.278 13.8922 102.278 15.6153V38.7333C102.278 40.4564 103.693 41.8563 105.433 41.8563C107.174 41.8563 108.589 40.4564 108.589 38.7333V15.6153C108.589 14.7538 108.262 13.9999 107.646 13.3897C107.066 12.7794 106.304 12.4922 105.433 12.4922Z" fill="url(#paint3_linear_316_111)"/>
<path d="M131.511 12.4564C129.878 12.4564 128.573 13.7487 128.573 15.3641V38.8051C128.573 40.4205 129.915 41.7128 131.511 41.7128C133.143 41.7128 134.448 40.4205 134.448 38.8051V15.3641C134.448 14.5385 134.122 13.8205 133.578 13.2821C133.07 12.7795 132.345 12.4564 131.511 12.4564Z" fill="url(#paint4_linear_316_111)"/>
<path d="M165.168 12.4923C163.5 12.4564 162.158 13.8923 162.158 15.5077V32.5231L145.22 13.3538C144.749 12.8154 144.06 12.4923 143.298 12.4923H141.521C140.687 12.4923 139.961 12.8154 139.345 13.4615V13.4974C139.055 13.8205 138.837 14.1436 138.728 14.5026V14.5385C138.583 14.7897 138.51 15.1128 138.51 15.4359V38.841C138.51 40.4205 139.78 41.7846 141.412 41.7846C142.282 41.7846 142.972 41.4974 143.588 40.9231C144.168 40.3487 144.459 39.6667 144.459 38.8769V21.8256L161.36 40.9231C161.831 41.4615 162.52 41.7846 163.282 41.7846H165.059C165.93 41.7846 166.655 41.4974 167.235 40.8872L167.272 40.8513V40.8154C167.526 40.5282 167.743 40.2051 167.888 39.8102C167.997 39.5231 168.033 39.2 168.033 38.9128V15.4C168.07 13.8205 166.764 12.5282 165.168 12.4923Z" fill="url(#paint5_linear_316_111)"/>
<path d="M195.706 12.2769C195.126 12.2769 194.582 12.4564 194.074 12.7795C193.566 13.1385 193.204 13.5692 192.986 14.1436L191.354 18.1641L188.996 24.0513L184.898 34.2461L180.763 24.0513L178.442 18.1641L176.81 14.1436C176.665 13.7846 176.484 13.4615 176.194 13.1744C175.903 12.8872 175.577 12.6718 175.214 12.5282C174.852 12.3846 174.489 12.2769 174.054 12.2769C172.204 12.2769 170.898 14.1436 171.587 15.8667L180.872 38.8769C181.525 40.5282 183.121 41.6051 184.934 41.6051C186.712 41.6051 188.307 40.5282 188.996 38.8769L198.281 15.8667C198.825 14.1436 197.556 12.2769 195.706 12.2769Z" fill="url(#paint6_linear_316_111)"/>
<path d="M222.908 36.0051H208.11V30.1179H216.996C218.628 30.1179 219.934 28.8256 219.934 27.2102C219.934 25.5948 218.628 24.3025 216.996 24.3025H208.11V18.4512H222.872C224.504 18.4512 225.809 17.1589 225.809 15.5436C225.809 13.9282 224.504 12.6359 222.872 12.6359H205.354C203.613 12.6359 202.198 14.0359 202.198 15.7589V38.8769C202.198 39.6666 202.489 40.3487 203.069 40.923C203.649 41.4974 204.338 41.7846 205.136 41.7846H222.908C224.504 41.7846 225.809 40.4923 225.809 38.9128C225.846 37.2974 224.54 36.0051 222.908 36.0051Z" fill="url(#paint7_linear_316_111)"/>
<path d="M237.996 18.1641H249.747C250.291 18.1641 250.762 18.0205 251.234 17.7692C251.705 17.5179 252.068 17.159 252.322 16.6923C252.576 16.2256 252.721 15.759 252.721 15.2205C252.721 13.6051 251.415 12.3128 249.783 12.3128H237.996C235.566 12.3128 233.462 13.1743 231.721 14.8615C229.98 16.5846 229.146 18.6308 229.146 21.0718C229.146 23.4769 230.016 25.559 231.721 27.3179C233.426 29.041 235.529 29.9025 237.996 29.9025H243.907C244.488 29.9025 245.068 30.0461 245.539 30.3692C245.866 30.5846 246.156 30.8718 246.374 31.1949C246.664 31.6974 246.845 32.2 246.845 32.8102C246.845 33.6 246.555 34.282 245.975 34.8923C245.394 35.4667 244.705 35.7538 243.907 35.7538H232.12C231.322 35.7538 230.633 36.041 230.053 36.6154C229.472 37.1897 229.182 37.8718 229.182 38.6615C229.182 40.2769 230.524 41.6051 232.156 41.6051H243.871C246.337 41.6051 248.441 40.7436 250.182 39.0205C251.923 37.2974 252.757 35.2154 252.757 32.7743C252.757 30.3692 251.886 28.2872 250.182 26.5641C248.441 24.841 246.374 24.0154 243.871 24.0154H237.996C237.161 24.0154 236.472 23.7282 235.892 23.1538C235.312 22.5795 235.022 21.8974 235.022 21.1077C235.022 20.3179 235.312 19.5641 235.892 19.0256C236.472 18.4513 237.161 18.1641 237.996 18.1641Z" fill="url(#paint8_linear_316_111)"/>
<path d="M282.026 12.2769H258.451C256.819 12.2769 255.477 13.6051 255.477 15.2205C255.477 16.0103 255.767 16.6923 256.348 17.2667C256.928 17.841 257.617 18.1282 258.451 18.1282H267.265V38.6615C267.265 40.2769 268.57 41.5692 270.202 41.5692C270.746 41.5692 271.218 41.4256 271.689 41.1744C272.161 40.9231 272.524 40.5641 272.778 40.1333C273.031 39.7026 273.176 39.2 273.176 38.6974V18.2H282.026C282.86 18.2 283.549 17.9128 284.13 17.3385C284.71 16.7641 285 16.082 285 15.2923C285 13.6051 283.658 12.2769 282.026 12.2769Z" fill="url(#paint9_linear_316_111)"/>
</g>
<defs>
<linearGradient id="paint0_linear_316_111" x1="10.4592" y1="42.1418" x2="39.291" y2="-3.37381" gradientUnits="userSpaceOnUse">
<stop stop-color="#74EAE8"/>
<stop offset="1" stop-color="#0394E8"/>
</linearGradient>
<linearGradient id="paint1_linear_316_111" x1="57.7765" y1="12.9231" x2="57.7765" y2="41.65" gradientUnits="userSpaceOnUse">
<stop stop-color="#085CB0"/>
<stop offset="1" stop-color="#0A3781"/>
</linearGradient>
<linearGradient id="paint2_linear_316_111" x1="85.6488" y1="12.923" x2="85.6488" y2="41.6499" gradientUnits="userSpaceOnUse">
<stop stop-color="#085CB0"/>
<stop offset="1" stop-color="#0A3781"/>
</linearGradient>
<linearGradient id="paint3_linear_316_111" x1="105.433" y1="12.923" x2="105.433" y2="41.6499" gradientUnits="userSpaceOnUse">
<stop stop-color="#085CB0"/>
<stop offset="1" stop-color="#0A3781"/>
</linearGradient>
<linearGradient id="paint4_linear_316_111" x1="131.52" y1="12.9231" x2="131.52" y2="41.65" gradientUnits="userSpaceOnUse">
<stop stop-color="#085CB0"/>
<stop offset="1" stop-color="#0A3781"/>
</linearGradient>
<linearGradient id="paint5_linear_316_111" x1="153.262" y1="12.9231" x2="153.262" y2="41.65" gradientUnits="userSpaceOnUse">
<stop stop-color="#085CB0"/>
<stop offset="1" stop-color="#0A3781"/>
</linearGradient>
<linearGradient id="paint6_linear_316_111" x1="184.877" y1="12.9231" x2="184.877" y2="41.65" gradientUnits="userSpaceOnUse">
<stop stop-color="#085CB0"/>
<stop offset="1" stop-color="#0A3781"/>
</linearGradient>
<linearGradient id="paint7_linear_316_111" x1="214.027" y1="12.923" x2="214.027" y2="41.65" gradientUnits="userSpaceOnUse">
<stop stop-color="#085CB0"/>
<stop offset="1" stop-color="#0A3781"/>
</linearGradient>
<linearGradient id="paint8_linear_316_111" x1="240.935" y1="12.9231" x2="240.935" y2="41.65" gradientUnits="userSpaceOnUse">
<stop stop-color="#085CB0"/>
<stop offset="1" stop-color="#0A3781"/>
</linearGradient>
<linearGradient id="paint9_linear_316_111" x1="270.227" y1="12.9231" x2="270.227" y2="41.65" gradientUnits="userSpaceOnUse">
<stop stop-color="#085CB0"/>
<stop offset="1" stop-color="#0A3781"/>
</linearGradient>
<clipPath id="clip0_316_111">
<rect width="285" height="42" fill="white"/>
</clipPath>
</defs>
</svg>
