<svg width="34" height="34" viewBox="0 0 34 34" fill="none" xmlns="http://www.w3.org/2000/svg">
<path d="M27.0403 29.0434L5.00217 7.0052C4.44921 6.45224 4.44921 5.55469 5.00217 5.00173C5.55513 4.44877 6.45268 4.44877 7.00564 5.00173L29.0438 27.0399C29.5968 27.5929 29.5968 28.4904 29.0438 29.0434C28.4908 29.5963 27.5933 29.5963 27.0403 29.0434Z" fill="white"/>
<path d="M28.0434 7.0052L6.00521 29.0434C5.45225 29.5963 4.5547 29.5963 4.00174 29.0434C3.44878 28.4904 3.44878 27.5929 4.00173 27.0399L26.0399 5.00173C26.5929 4.44877 27.4904 4.44877 28.0434 5.00173C28.5963 5.55469 28.5963 6.45224 28.0434 7.0052Z" fill="white"/>
</svg>
