<svg width="144" height="144" viewBox="0 0 144 144" fill="none" xmlns="http://www.w3.org/2000/svg">
<g clip-path="url(#clip0_477_1432)">
<mask id="mask0_477_1432" style="mask-type:alpha" maskUnits="userSpaceOnUse" x="72" y="-12" width="57" height="114">
<path d="M72 -11.25C79.3869 -11.25 86.7014 -9.79505 93.526 -6.96822C100.351 -4.14139 106.551 0.00195408 111.775 5.22525C116.998 10.4485 121.141 16.6495 123.968 23.4741C126.795 30.2986 128.25 37.6132 128.25 45C128.25 52.3869 126.795 59.7014 123.968 66.526C121.141 73.3505 116.998 79.5515 111.775 84.7748C106.551 89.9981 100.35 94.1414 93.5259 96.9682C86.7013 99.7951 79.3868 101.25 72 101.25L72 45V-11.25Z" fill="white"/>
</mask>
<g mask="url(#mask0_477_1432)">
<path d="M57.6595 48.5773C57.0595 48.9802 56.4955 49.4429 55.977 49.9614L49.365 56.5729C46.9208 59.0168 46.0928 62.6449 47.2346 65.9073L51.1972 77.2289C51.5534 78.2468 52.851 78.5426 53.6133 77.7797L63.7561 67.6377L58.2056 50.4577C58.0047 49.8359 57.8226 49.2088 57.6595 48.5773Z" fill="#007BFF" fill-opacity="0.25"/>
<path d="M80.7991 68.1933L90.3853 77.7795C91.1487 78.5429 92.4474 78.2465 92.8041 77.2275L96.7652 65.9099C97.9074 62.6466 97.0792 59.0175 94.6345 56.5728L88.0233 49.9617C87.6862 49.6245 87.3299 49.311 86.9569 49.0222C86.8253 49.5035 86.6827 49.9821 86.5291 50.4577L80.7991 68.1933Z" fill="#007BFF" fill-opacity="0.25"/>
<path d="M72.0831 12.034C72.2464 11.8939 72.4875 11.8939 72.6508 12.034L76.6645 15.4743C83.9335 21.7048 88.1169 30.8006 88.1169 40.3744C88.1169 43.7974 87.5814 47.2004 86.5291 50.4577L78.8745 74.1483C78.7508 74.5312 78.3943 74.7906 77.9919 74.7906H66.7419C66.3396 74.7906 65.9831 74.5312 65.8594 74.1483L58.2056 50.4577C57.1532 47.2004 56.6169 43.7974 56.6169 40.3744C56.6169 30.8006 60.8004 21.7048 68.0694 15.4743L72.0831 12.034Z" fill="#007BFF" fill-opacity="0.25"/>
<path d="M69.4441 29.2284C71.2528 28.1842 73.4811 28.1842 75.2898 29.2284C77.0984 30.2726 78.2126 32.2025 78.2126 34.2909C78.2126 36.3794 77.0984 38.3092 75.2898 39.3534C73.4811 40.3976 71.2528 40.3976 69.4441 39.3534C67.6354 38.3092 66.5213 36.3794 66.5213 34.2909C66.5213 32.2025 67.6354 30.2726 69.4441 29.2284Z" fill="#007BFF" fill-opacity="0.25"/>
<path d="M58.2056 50.4577L63.7561 67.6377L53.6133 77.7798C52.851 78.5427 51.5534 78.2468 51.1972 77.2289L47.2346 65.9073C46.0928 62.6449 46.9208 59.0168 49.365 56.5729L55.977 49.9614C56.4955 49.4429 57.0595 48.9802 57.6595 48.5773C57.8226 49.2088 58.0047 49.8359 58.2056 50.4577ZM58.2056 50.4577L65.8594 74.1483C65.9831 74.5312 66.3396 74.7906 66.7419 74.7906H77.9919C78.3943 74.7906 78.7508 74.5312 78.8745 74.1483L86.5291 50.4577M58.2056 50.4577C57.1532 47.2004 56.6169 43.7974 56.6169 40.3744C56.6169 30.8006 60.8004 21.7048 68.0694 15.4743L72.0831 12.034C72.2464 11.8939 72.4875 11.8939 72.6508 12.034L76.6645 15.4743C83.9335 21.7048 88.1169 30.8006 88.1169 40.3744C88.1169 43.7974 87.5814 47.2004 86.5291 50.4577M86.5291 50.4577C86.6827 49.9821 86.8253 49.5035 86.9569 49.0222C87.3299 49.311 87.6862 49.6245 88.0233 49.9617L94.6345 56.5728C97.0792 59.0175 97.9074 62.6466 96.7652 65.9099L92.8041 77.2275C92.4474 78.2465 91.1487 78.5429 90.3853 77.7795L80.7991 68.1933L86.5291 50.4577ZM66.5213 34.2909C66.5213 32.2025 67.6354 30.2726 69.4441 29.2284C71.2528 28.1842 73.4811 28.1842 75.2898 29.2284C77.0984 30.2726 78.2126 32.2025 78.2126 34.2909C78.2126 36.3794 77.0984 38.3092 75.2898 39.3534C73.4811 40.3976 71.2528 40.3976 69.4441 39.3534C67.6354 38.3092 66.5213 36.3794 66.5213 34.2909Z" stroke="#007BFF" stroke-width="6" stroke-linecap="round" stroke-linejoin="round"/>
</g>
<path d="M103.5 46.6666L72.0002 136.667L40.5002 46.6666M103.5 46.6666H40.5002M103.5 46.6666V100.667H40.5002V46.6666M45.0002 73.6666L72.0002 46.6666L99.0002 73.6666M56.6172 25.2916L72.3672 11.7916L88.1172 25.2916M88.125 46.5V25.125H56.625V46.5M88.125 46.5L72.375 94.125L56.625 46.5M88.125 46.5V74.625H56.625V46.5M72.3669 27.5408L78.2126 30.9158V37.6658L72.3669 41.0408L66.5212 37.6658V30.9158L72.3669 27.5408Z" stroke="#007BFF" stroke-linecap="round" stroke-linejoin="round" stroke-dasharray="2.25 5.62"/>
</g>
<defs>
<clipPath id="clip0_477_1432">
<rect width="144" height="144" fill="white"/>
</clipPath>
</defs>
</svg>
